<?xml version="1.0" encoding="utf-8"?>
<!-- Generator: Adobe Illustrator 16.0.0, SVG Export Plug-In . SVG Version: 6.00 Build 0)  -->
<!DOCTYPE svg PUBLIC "-//W3C//DTD SVG 1.1//EN" "http://www.w3.org/Graphics/SVG/1.1/DTD/svg11.dtd">
<svg version="1.1" id="Capa_1" xmlns="http://www.w3.org/2000/svg" xmlns:xlink="http://www.w3.org/1999/xlink" x="0px" y="0px"
	 width="289.73px" height="54.752px" viewBox="-0.316 -9.924 289.73 54.752" enable-background="new -0.316 -9.924 289.73 54.752"
	 xml:space="preserve">
<g>
	<g>
		<g>
			<g>
				<g>
					<g>
						<path fill="#F42534" d="M285.077,19.135c0.743,0,1.457,0.186,2.138,0.561c0.688,0.373,1.219,0.907,1.611,1.598
							c0.394,0.692,0.588,1.421,0.588,2.177c0,0.757-0.19,1.475-0.575,2.159c-0.383,0.687-0.916,1.224-1.602,1.6
							c-0.686,0.388-1.402,0.578-2.16,0.578c-0.756,0-1.475-0.19-2.16-0.578c-0.686-0.376-1.219-0.913-1.604-1.6
							c-0.382-0.685-0.571-1.402-0.571-2.159c0-0.756,0.197-1.484,0.586-2.177c0.388-0.69,0.93-1.225,1.609-1.598
							C283.618,19.321,284.333,19.135,285.077,19.135z M285.077,19.985c-0.594,0-1.169,0.154-1.718,0.455
							c-0.548,0.293-0.984,0.721-1.293,1.278c-0.313,0.559-0.471,1.14-0.471,1.752c0,0.602,0.154,1.183,0.461,1.732
							c0.309,0.553,0.736,0.978,1.291,1.29c0.548,0.305,1.128,0.462,1.729,0.462c0.607,0,1.186-0.157,1.734-0.462
							c0.55-0.312,0.979-0.737,1.289-1.29c0.305-0.55,0.458-1.131,0.458-1.732c0-0.606-0.156-1.188-0.471-1.75
							c-0.313-0.56-0.738-0.987-1.292-1.28C286.246,20.139,285.675,19.985,285.077,19.985z"/>
					</g>
				</g>
				<g>
					<g>
						<path fill="#F42534" d="M283.788,25.804h-0.945l0.958-4.593h2.04c0.352,0,0.625,0.034,0.821,0.107
							c0.194,0.074,0.353,0.207,0.468,0.399c0.124,0.187,0.187,0.422,0.187,0.699c0,0.388-0.121,0.71-0.353,0.962
							c-0.235,0.256-0.589,0.412-1.061,0.477c0.12,0.107,0.235,0.246,0.338,0.427c0.21,0.359,0.447,0.864,0.707,1.521h-1.016
							c-0.084-0.258-0.244-0.661-0.479-1.216c-0.13-0.292-0.269-0.494-0.413-0.598c-0.091-0.059-0.248-0.091-0.471-0.091h-0.389
							L283.788,25.804z M284.326,23.214h0.503c0.508,0,0.847-0.033,1.012-0.095c0.165-0.062,0.298-0.15,0.393-0.281
							c0.091-0.128,0.137-0.268,0.137-0.409c0-0.166-0.066-0.297-0.204-0.375c-0.085-0.05-0.263-0.078-0.54-0.078h-1.04
							L284.326,23.214z"/>
					</g>
				</g>
			</g>
			<g>
				<g>
					<g>
						<path fill="#55565A" d="M16.723-1.68c7.725,0,11.111,4.022,11.111,4.022L23.229,8.05c0,0-2.487-2.114-6.083-2.114
							c-5.134,0-8.205,4.29-8.205,7.884c0,2.807,1.695,5.397,5.609,5.397c3.865,0,8.15-3.274,8.15-3.274l2.329,6.928
							c0,0-4.761,3.973-11.747,3.973c-8.995,0-13.599-5.563-13.599-12.492C-0.316,6.573,6.351-1.68,16.723-1.68z"/>
						<path fill="#55565A" d="M43.322-1.68c8.203,0,14.13,4.816,14.13,12.222c0,9.629-8.52,16.301-16.986,16.301
							c-8.2,0-14.13-4.765-14.13-12.229C26.336,5.04,34.805-1.68,43.322-1.68z M40.625,19.217c3.651,0,7.567-3.123,7.567-8.093
							c0-3.229-2.118-5.188-4.973-5.188c-3.601,0-7.621,3.283-7.621,8.256C35.598,17.366,37.713,19.217,40.625,19.217z"/>
						<path fill="#55565A" d="M61.969-1.047h8.837l-0.263,1.379c-0.265,1.378-0.69,2.699-0.69,2.699h0.107
							c1.535-2.43,5.344-4.71,9.101-4.71c4.709,0,8.573,2.06,8.573,7.723c0,0.901-0.159,1.908-0.374,3.019l-3.333,17.142h-9.154
							l3.072-15.661c0.101-0.636,0.157-1.22,0.157-1.588c0-1.64-0.794-2.325-2.434-2.325c-3.601,0-6.666,3.546-7.41,7.503
							l-2.325,12.071h-9.157L61.969-1.047z"/>
						<path fill="#55565A" d="M91.659,16.994c0,0,2.804,2.437,6.879,2.437c1.426,0,2.962-0.421,2.962-1.375
							c0-2.436-10.793-2.857-10.793-10.898c0-5.292,5.61-8.837,11.43-8.837c6.563,0,10.263,3.122,10.263,3.122l-3.912,6.241
							c0,0-2.277-1.954-6.352-1.954c-1.323,0-2.963,0.42-2.963,1.429c0,2.115,10.846,2.697,10.846,10.898
							c0,5.291-4.656,8.787-11.482,8.787c-6.776,0-11.431-3.973-11.431-3.973L91.659,16.994z"/>
						<path fill="#55565A" d="M112.438,15.62l1.8-9.047h6.396l1.321-7.142h-6.023l1.136-5.86l9.516-3.495l-1.87,9.355h5.771
							l-1.379,7.142h-5.766l-1.48,7.778c-0.106,0.48-0.159,1.167-0.159,1.431c0,2.221,2.01,2.643,4.021,2.643
							c0.794,0,1.425-0.045,1.425-0.045l-1.53,7.928c0,0-1.375,0.159-2.434,0.159c-5.979,0-11.008-2.43-11.008-8.728
							C112.173,17.102,112.282,16.362,112.438,15.62z"/>
						<path fill="#F42534" d="M263.057,15.62l1.797-9.047h6.396l1.32-7.142h-6.024l1.141-5.86l9.514-3.495l-1.871,9.355h5.771
							l-1.376,7.142h-5.768l-1.483,7.778c-0.104,0.48-0.158,1.167-0.158,1.431c0,2.221,2.008,2.643,4.02,2.643
							c0.798,0,1.434-0.045,1.434-0.045l-1.537,7.928c0,0-1.376,0.159-2.432,0.159c-5.981,0-11.007-2.43-11.007-8.728
							C262.792,17.102,262.895,16.362,263.057,15.62z"/>
						<path fill="#55565A" d="M132.935-1.047h8.786l-0.899,4.604c-0.159,0.902-0.429,1.698-0.429,1.698h0.055
							c1.749-3.71,5.613-6.781,9.479-6.781c0.895,0,1.581,0.107,1.581,0.107l-1.748,9c0,0-0.686-0.162-1.796-0.162
							c-2.752,0-7.935,2.171-9.365,9.528l-1.798,9.258h-9.155L132.935-1.047z"/>
						<path fill="#55565A" d="M149.731,16.094l3.333-17.142h9.151l-3.065,15.662c-0.107,0.634-0.161,1.216-0.161,1.588
							c0,1.644,0.795,2.333,2.433,2.333c3.496,0,6.356-3.543,7.093-7.515l2.328-12.067h9.152l-5.293,27.25h-8.832l0.26-1.379
							c0.27-1.371,0.688-2.697,0.688-2.697h-0.101c-1.537,2.441-5.03,4.716-8.785,4.716c-4.712,0-8.573-2.067-8.573-7.729
							C149.359,18.214,149.516,17.206,149.731,16.094z"/>
						<path fill="#F42534" d="M182.807-1.047h8.837l-0.265,1.379c-0.268,1.378-0.688,2.699-0.688,2.699h0.103
							c1.535-2.43,5.349-4.71,9.103-4.71c4.708,0,8.572,2.06,8.572,7.723c0,0.901-0.156,1.908-0.372,3.019l-3.33,17.142h-9.157
							l3.068-15.661c0.107-0.636,0.16-1.22,0.16-1.588c0-1.64-0.791-2.325-2.433-2.325c-3.6,0-6.668,3.546-7.408,7.503
							l-2.325,12.071h-9.16L182.807-1.047z"/>
						<path fill="#F42534" d="M226.603-1.68c8.203,0,14.128,4.816,14.128,12.222c0,9.629-8.515,16.301-16.986,16.301
							c-8.197,0-14.123-4.765-14.123-12.229C209.622,5.04,218.082-1.68,226.603-1.68z M223.907,19.217
							c3.651,0,7.565-3.123,7.565-8.093c0-3.229-2.119-5.188-4.974-5.188c-3.6,0-7.622,3.283-7.622,8.256
							C218.876,17.366,220.999,19.217,223.907,19.217z"/>
						<path fill="#F42534" d="M245.249-1.047h8.784l-0.9,4.604c-0.156,0.902-0.421,1.698-0.421,1.698h0.055
							c1.745-3.71,5.606-6.781,9.469-6.781c0.9,0,1.586,0.107,1.586,0.107l-1.739,9c0,0-0.688-0.162-1.805-0.162
							c-2.753,0-7.937,2.171-9.365,9.528l-1.797,9.258h-9.155L245.249-1.047z"/>
					</g>
				</g>
			</g>
		</g>
	</g>
	<g>
		<path fill="#55565A" d="M2.672,40.242c0-1.773,0.641-3.305,1.923-4.593c1.282-1.287,2.79-1.931,4.524-1.931
			c0.769,0,1.518,0.123,2.247,0.368c0.728,0.247,1.329,0.627,1.8,1.14l-1.139,1.369c-0.78-0.708-1.729-1.062-2.847-1.062
			c-1.272,0-2.334,0.467-3.186,1.4c-0.852,0.933-1.277,1.995-1.277,3.185c0,0.893,0.266,1.629,0.8,2.209
			c0.533,0.579,1.271,0.869,2.216,0.869c1.2,0,2.354-0.457,3.462-1.37l0.815,1.57c-0.523,0.472-1.19,0.858-2,1.162
			c-0.81,0.302-1.605,0.453-2.385,0.453c-1.519,0-2.724-0.441-3.616-1.323S2.672,41.658,2.672,40.242z"/>
		<path fill="#55565A" d="M12.674,41.535c0-1.323,0.495-2.444,1.485-3.362c0.99-0.918,2.116-1.377,3.377-1.377
			c1.139,0,2.067,0.32,2.785,0.961c0.718,0.643,1.077,1.476,1.077,2.501c0,1.334-0.495,2.459-1.485,3.378
			c-0.99,0.918-2.116,1.377-3.378,1.377c-1.139,0-2.067-0.32-2.785-0.962C13.033,43.411,12.674,42.572,12.674,41.535z
			 M14.659,41.443c0,0.575,0.177,1.037,0.531,1.386s0.813,0.523,1.377,0.523c0.729,0,1.385-0.285,1.97-0.854
			c0.585-0.57,0.877-1.274,0.877-2.116c0-0.574-0.18-1.038-0.539-1.392c-0.359-0.354-0.815-0.532-1.37-0.532
			c-0.729,0-1.385,0.29-1.97,0.87C14.952,39.906,14.659,40.613,14.659,41.443z"/>
		<path fill="#55565A" d="M21.814,44.828l1.523-7.848h1.893l-0.123,0.708l-0.215,0.769h0.03c0.247-0.42,0.646-0.802,1.201-1.146
			c0.553-0.344,1.148-0.516,1.785-0.516c0.728,0,1.305,0.175,1.731,0.523c0.426,0.349,0.638,0.888,0.638,1.616
			c0,0.235-0.036,0.548-0.107,0.938l-0.954,4.955h-1.954l0.893-4.586c0.051-0.286,0.077-0.522,0.077-0.707
			c0-0.637-0.329-0.954-0.985-0.954s-1.251,0.267-1.785,0.8c-0.533,0.533-0.872,1.17-1.015,1.908l-0.678,3.539H21.814z"/>
		<path fill="#55565A" d="M30.508,43.92l0.954-1.322c0.236,0.235,0.546,0.428,0.931,0.576c0.384,0.149,0.771,0.224,1.162,0.224
			c0.379,0,0.689-0.071,0.931-0.216c0.241-0.144,0.361-0.354,0.361-0.631c0-0.205-0.113-0.387-0.338-0.547
			c-0.226-0.158-0.5-0.3-0.823-0.423c-0.323-0.123-0.644-0.269-0.961-0.438c-0.318-0.169-0.59-0.415-0.816-0.738
			s-0.338-0.71-0.338-1.162c0-0.738,0.305-1.331,0.916-1.776c0.61-0.446,1.357-0.67,2.239-0.67c1.036,0,1.923,0.292,2.663,0.877
			l-0.832,1.354c-0.461-0.411-1.087-0.616-1.877-0.616c-0.369,0-0.674,0.069-0.915,0.208c-0.241,0.139-0.362,0.347-0.362,0.623
			c0,0.206,0.113,0.385,0.339,0.539c0.225,0.153,0.5,0.295,0.823,0.423c0.323,0.128,0.646,0.274,0.97,0.438
			c0.323,0.165,0.598,0.41,0.823,0.739c0.226,0.328,0.338,0.723,0.338,1.185c0,0.729-0.287,1.318-0.861,1.77
			c-0.574,0.451-1.313,0.677-2.216,0.677C32.386,45.013,31.35,44.649,30.508,43.92z"/>
		<path fill="#55565A" d="M38.28,42.521c0-0.226,0.03-0.467,0.092-0.724l0.615-3.154h-1l0.293-1.555h1.062l0.446-2.246h1.877
			l-0.446,2.246h1.8l-0.292,1.555h-1.8l-0.57,2.954c-0.031,0.205-0.046,0.385-0.046,0.538c0,0.698,0.41,1.047,1.231,1.047
			c0.061,0,0.205-0.01,0.431-0.03l-0.338,1.708c-0.308,0.03-0.498,0.046-0.569,0.046c-0.513,0-0.967-0.067-1.362-0.2
			c-0.395-0.134-0.73-0.388-1.007-0.762S38.28,43.095,38.28,42.521z"/>
		<path fill="#55565A" d="M42.742,44.828l1.523-7.848h1.878l-0.262,1.354l-0.153,0.57h0.031c0.266-0.564,0.656-1.045,1.169-1.438
			c0.513-0.396,1.051-0.593,1.616-0.593c0.082,0,0.236,0.011,0.461,0.031l-0.369,1.923c-0.205-0.021-0.359-0.03-0.462-0.03
			c-0.615,0-1.213,0.305-1.792,0.915c-0.58,0.61-0.962,1.387-1.147,2.331l-0.539,2.785H42.742z"/>
		<path fill="#55565A" d="M48.835,42.874c0-0.235,0.036-0.549,0.108-0.938l0.954-4.955h1.954l-0.892,4.586
			c-0.052,0.307-0.077,0.549-0.077,0.723c0,0.626,0.333,0.938,1,0.938c0.636,0,1.21-0.269,1.723-0.808
			c0.514-0.539,0.836-1.172,0.97-1.9l0.676-3.539h1.955l-1.523,7.848H53.79l0.139-0.708l0.2-0.754h-0.031
			c-0.246,0.421-0.636,0.8-1.169,1.14c-0.534,0.338-1.118,0.507-1.754,0.507c-0.697,0-1.262-0.172-1.693-0.515
			C49.05,44.155,48.835,43.613,48.835,42.874z"/>
		<path fill="#55565A" d="M57.406,44.828l1.524-7.848h1.954l-1.539,7.848H57.406z M59.191,35.642l0.339-1.739h1.954l-0.338,1.739
			H59.191z"/>
		<path fill="#55565A" d="M61.068,44.828l1.522-7.848h1.878l-0.262,1.354l-0.154,0.57h0.031c0.266-0.564,0.656-1.045,1.17-1.438
			c0.513-0.396,1.051-0.593,1.614-0.593c0.083,0,0.237,0.011,0.462,0.031l-0.369,1.923c-0.205-0.021-0.359-0.03-0.462-0.03
			c-0.615,0-1.212,0.305-1.792,0.915c-0.58,0.61-0.961,1.387-1.146,2.331l-0.539,2.785H61.068z"/>
		<path fill="#55565A" d="M70.162,41.643c0-1.343,0.434-2.487,1.3-3.432c0.867-0.943,1.947-1.415,3.239-1.415
			c1.025,0,1.805,0.27,2.339,0.808c0.534,0.538,0.8,1.259,0.8,2.162c0,0.391-0.087,0.893-0.262,1.508h-5.417
			c-0.021,0.164-0.031,0.287-0.031,0.369c0,0.452,0.177,0.85,0.531,1.193s0.829,0.516,1.424,0.516c0.81,0,1.621-0.287,2.431-0.862
			l0.522,1.492c-0.328,0.268-0.783,0.506-1.362,0.716c-0.58,0.21-1.146,0.315-1.701,0.315c-1.189,0-2.123-0.317-2.801-0.954
			C70.5,43.423,70.162,42.617,70.162,41.643z M72.44,39.935h3.447c0.021-0.071,0.031-0.185,0.031-0.338
			c0-0.421-0.114-0.746-0.34-0.978c-0.225-0.231-0.527-0.347-0.908-0.347c-0.502,0-0.951,0.149-1.346,0.447
			C72.929,39.017,72.634,39.422,72.44,39.935z"/>
		<path fill="#55565A" d="M77.825,43.92l0.954-1.322c0.236,0.235,0.546,0.428,0.932,0.576c0.384,0.149,0.771,0.224,1.161,0.224
			c0.38,0,0.69-0.071,0.93-0.216c0.242-0.144,0.363-0.354,0.363-0.631c0-0.205-0.114-0.387-0.34-0.547
			c-0.226-0.158-0.5-0.3-0.823-0.423c-0.323-0.123-0.644-0.269-0.961-0.438c-0.319-0.169-0.591-0.415-0.815-0.738
			c-0.226-0.323-0.339-0.71-0.339-1.162c0-0.738,0.305-1.331,0.916-1.776c0.61-0.446,1.357-0.67,2.239-0.67
			c1.036,0,1.924,0.292,2.663,0.877l-0.831,1.354c-0.462-0.411-1.088-0.616-1.878-0.616c-0.37,0-0.675,0.069-0.915,0.208
			c-0.242,0.139-0.363,0.347-0.363,0.623c0,0.206,0.114,0.385,0.34,0.539c0.224,0.153,0.499,0.295,0.823,0.423
			c0.322,0.128,0.646,0.274,0.969,0.438c0.322,0.165,0.598,0.41,0.823,0.739c0.226,0.328,0.338,0.723,0.338,1.185
			c0,0.729-0.288,1.318-0.862,1.77s-1.313,0.677-2.215,0.677C79.703,45.013,78.666,44.649,77.825,43.92z"/>
		<path fill="#55565A" d="M88.474,41.535c0-1.271,0.471-2.38,1.416-3.324c0.944-0.943,2.093-1.415,3.446-1.415
			c1.304,0,2.319,0.385,3.047,1.154l-1.031,1.231c-0.503-0.482-1.144-0.725-1.924-0.725c-0.82,0-1.523,0.296-2.107,0.886
			s-0.877,1.28-0.877,2.069c0,0.564,0.182,1.028,0.547,1.393c0.363,0.364,0.859,0.547,1.484,0.547c0.82,0,1.657-0.334,2.508-1.001
			l0.538,1.508c-0.39,0.339-0.887,0.616-1.492,0.832c-0.606,0.215-1.201,0.322-1.785,0.322c-1.169,0-2.091-0.322-2.762-0.97
			C88.81,43.398,88.474,42.562,88.474,41.535z"/>
		<path fill="#55565A" d="M96.306,44.828l1.523-7.848h1.877l-0.26,1.354l-0.154,0.57h0.031c0.267-0.564,0.656-1.045,1.168-1.438
			c0.513-0.396,1.052-0.593,1.616-0.593c0.081,0,0.235,0.011,0.461,0.031l-0.37,1.923c-0.206-0.021-0.358-0.03-0.461-0.03
			c-0.616,0-1.214,0.305-1.794,0.915c-0.58,0.61-0.961,1.387-1.146,2.331l-0.54,2.785H96.306z"/>
		<path fill="#55565A" d="M102.155,41.643c0-1.343,0.432-2.487,1.3-3.432c0.866-0.943,1.946-1.415,3.24-1.415
			c1.025,0,1.804,0.27,2.337,0.808c0.533,0.538,0.801,1.259,0.801,2.162c0,0.391-0.087,0.893-0.262,1.508h-5.417
			c-0.02,0.164-0.029,0.287-0.029,0.369c0,0.452,0.176,0.85,0.53,1.193c0.354,0.344,0.828,0.516,1.423,0.516
			c0.81,0,1.621-0.287,2.431-0.862l0.523,1.492c-0.329,0.268-0.782,0.506-1.362,0.716c-0.578,0.21-1.145,0.315-1.7,0.315
			c-1.189,0-2.123-0.317-2.801-0.954C102.493,43.423,102.155,42.617,102.155,41.643z M104.432,39.935h3.447
			c0.021-0.071,0.03-0.185,0.03-0.338c0-0.421-0.112-0.746-0.338-0.978c-0.226-0.231-0.528-0.347-0.907-0.347
			c-0.503,0-0.952,0.149-1.347,0.447C104.921,39.017,104.626,39.422,104.432,39.935z"/>
		<path fill="#55565A" d="M109.94,42.982c0-0.472,0.112-0.893,0.338-1.262s0.513-0.664,0.862-0.884
			c0.349-0.222,0.756-0.406,1.223-0.555c0.468-0.148,0.921-0.249,1.362-0.301c0.441-0.051,0.887-0.076,1.338-0.076h0.293
			c0.03-0.164,0.045-0.329,0.045-0.492c0-0.667-0.421-1.001-1.261-1.001c-0.718,0-1.488,0.247-2.308,0.739l-0.463-1.509
			c0.318-0.205,0.774-0.397,1.37-0.576c0.595-0.18,1.175-0.27,1.739-0.27c0.811,0,1.493,0.189,2.046,0.569
			c0.553,0.379,0.831,0.984,0.831,1.816c0,0.205-0.025,0.471-0.077,0.799l-0.938,4.848h-1.801l0.123-0.662l0.154-0.569h-0.031
			c-0.215,0.35-0.552,0.673-1.007,0.971c-0.457,0.297-0.972,0.445-1.547,0.445c-0.636,0-1.176-0.182-1.624-0.546
			C110.163,44.103,109.94,43.608,109.94,42.982z M111.863,42.674c0,0.247,0.085,0.449,0.254,0.608
			c0.17,0.159,0.429,0.238,0.778,0.238c0.481,0,0.938-0.218,1.37-0.654c0.43-0.436,0.697-0.905,0.799-1.408l0.047-0.215h-0.34
			c-0.287,0-0.569,0.015-0.846,0.046s-0.584,0.09-0.922,0.177c-0.338,0.087-0.614,0.236-0.823,0.446
			C111.969,42.123,111.863,42.377,111.863,42.674z"/>
		<path fill="#55565A" d="M117.972,44.828l1.524-7.848h1.877l-0.262,1.354l-0.154,0.57h0.03c0.268-0.564,0.658-1.045,1.17-1.438
			c0.513-0.396,1.052-0.593,1.616-0.593c0.083,0,0.236,0.011,0.461,0.031l-0.369,1.923c-0.206-0.021-0.358-0.03-0.461-0.03
			c-0.616,0-1.214,0.305-1.793,0.915c-0.578,0.61-0.962,1.387-1.146,2.331l-0.539,2.785H117.972z"/>
		<path fill="#55565A" d="M123.004,44.828l0.369-1.97h1.97l-0.386,1.97H123.004z"/>
	</g>
</g>
</svg>
